<?xml version="1.0" standalone="no"?>
<!DOCTYPE svg PUBLIC "-//W3C//DTD SVG 1.1//EN" "http://www.w3.org/Graphics/SVG/1.1/DTD/svg11.dtd" >
<svg xmlns="http://www.w3.org/2000/svg" xmlns:xlink="http://www.w3.org/1999/xlink" version="1.1">
<metadata>
Created by FontForge 20200427 at Tue Mar 17 17:54:47 2015
 By www
Copyright (c) 2014 by Ryoichi Tsunekawa. All rights reserved.
</metadata>
<defs>
<font id="PiepieW01-Regular" horiz-adv-x="650" >
  <font-face 
    font-family="PiepieW01-Regular"
    font-weight="400"
    font-stretch="normal"
    units-per-em="1000"
    panose-1="4 2 11 7 2 11 2 2 2 2"
    ascent="800"
    descent="-200"
    x-height="620"
    cap-height="700"
    bbox="-50 -164 1737 918"
    underline-thickness="50"
    underline-position="-175"
    unicode-range="U+0020-2122"
  />
<missing-glyph horiz-adv-x="580" 
d="M545 0h-510v700h510v-700zM135 610v-520h310v520h-310z" />
    <glyph glyph-name=".notdef" horiz-adv-x="580" 
d="M545 0h-510v700h510v-700zM135 610v-520h310v520h-310z" />
    <glyph glyph-name=".null" horiz-adv-x="0" 
 />
    <glyph glyph-name="nonmarkingreturn" horiz-adv-x="333" 
 />
    <glyph glyph-name="space" unicode=" " horiz-adv-x="180" 
 />
    <glyph glyph-name="exclam" unicode="!" horiz-adv-x="400" 
d="M357 235q-23 13 -63 22t-94 9q-53 0 -93 -9t-64 -22l-30 465h374zM200 228q88 0 130 -30.5t42 -93.5t-42 -93.5t-130 -30.5t-130 30.5t-42 93.5t42 93.5t130 30.5z" />
    <glyph glyph-name="quotedbl" unicode="&#x22;" horiz-adv-x="662" 
d="M283 337h-229l-36 363h301zM608 337h-229l-36 363h301z" />
    <glyph glyph-name="numbersign" unicode="#" horiz-adv-x="718" 
d="M600 286h78l-16 -155h-78l-14 -131h-211l14 131h-74l-14 -131h-211l14 131h-78l16 155h78l14 129h-78l16 155h78l14 130h211l-14 -130h74l14 130h211l-14 -130h78l-16 -155h-78zM329 415l-14 -129h74l14 129h-74z" />
    <glyph glyph-name="dollar" unicode="$" horiz-adv-x="706" 
d="M697 233q0 -52 -16.5 -90t-51 -63.5t-89.5 -40t-131 -18.5v-61h-112v59q-71 2 -139.5 8t-142.5 18l11 245q32 -20 85 -31t116 -11q50 0 71.5 8t21.5 28q-83 0 -141.5 10t-95 32t-53.5 57.5t-17 86.5q0 100 67 149.5t217 58.5v42h112v-39q69 -1 134.5 -7t131.5 -19
l-10 -235q-27 19 -73.5 29.5t-103.5 10.5q-47 0 -67.5 -7.5t-20.5 -27.5q79 0 135.5 -10.5t92.5 -33.5t52.5 -59.5t16.5 -88.5z" />
    <glyph glyph-name="percent" unicode="%" horiz-adv-x="1206" 
d="M273 720q137 0 197.5 -58t60.5 -189q0 -65 -14.5 -111.5t-46 -76.5t-80 -44t-117.5 -14t-118 14t-80.5 44t-46 76.5t-14.5 111.5q0 66 14.5 112.5t46 76.5t80.5 44t118 14zM463 0h-116l396 700h116zM273 562q-19 0 -25 -17.5t-6 -71.5q0 -53 6 -70.5t25 -17.5
q18 0 24 17.5t6 70.5q0 54 -6 71.5t-24 17.5zM932 473q137 0 197.5 -58t60.5 -189q0 -65 -14.5 -111.5t-46 -76.5t-80 -44t-117.5 -14t-118 14t-80.5 44t-46 76.5t-14.5 111.5q0 66 14.5 112.5t46 76.5t80.5 44t118 14zM932 315q-19 0 -25 -17.5t-6 -71.5q0 -53 6 -70.5
t25 -17.5q18 0 24 17.5t6 70.5q0 54 -6 71.5t-24 17.5z" />
    <glyph glyph-name="ampersand" unicode="&#x26;" horiz-adv-x="936" 
d="M922 0q-36 -10 -80 -15t-86 -5q-117 0 -194 37q-88 -37 -225 -37q-170 0 -251.5 58.5t-81.5 180.5q0 110 65 170.5t199 84.5q3 127 63.5 186.5t185.5 59.5q106 0 160.5 -41t54.5 -124t-63 -127h204q0 -52 -9.5 -97.5t-26.5 -79.5q26 4 43.5 8t31.5 9zM489 503
q68 16 68 53q0 31 -34 31q-19 0 -26.5 -15t-7.5 -53v-16zM597 370v16.5t-1 9.5q-17 -5 -35.5 -8.5t-44.5 -8.5q19 -44 64 -82q17 37 17 73zM260 252q0 -71 89 -75q-21 32 -36.5 67.5t-26.5 73.5q-26 -26 -26 -66z" />
    <glyph glyph-name="quotesingle" unicode="'" horiz-adv-x="366" 
d="M310 337h-254l-36 363h326z" />
    <glyph glyph-name="parenleft" unicode="(" horiz-adv-x="398" 
d="M386 533q-22 -4 -37.5 -17t-25.5 -38t-14.5 -63t-4.5 -90q0 -105 19 -153t63 -55l-10 -202q-94 4 -161.5 29.5t-111.5 75.5t-65 125.5t-21 179.5q0 103 21 179t65 126t111.5 75.5t161.5 29.5z" />
    <glyph glyph-name="parenright" unicode=")" horiz-adv-x="398" 
d="M12 117q44 7 63 55t19 153q0 52 -4.5 90t-14.5 63t-25.5 38t-37.5 17l10 202q94 -4 161.5 -29.5t111.5 -75.5t65 -126t21 -179q0 -104 -21 -179.5t-65 -125.5t-111.5 -75.5t-161.5 -29.5z" />
    <glyph glyph-name="asterisk" unicode="*" horiz-adv-x="614" 
d="M573 262l-200 -146l-66 184l-66 -184l-200 146l153 119l-194 6l77 236l161 -111l-55 188h248l-55 -187l161 110l77 -236l-195 -6z" />
    <glyph glyph-name="plus" unicode="+" 
d="M425 240v-204h-200v204h-204v200h204v204h200v-204h204v-200h-204z" />
    <glyph glyph-name="comma" unicode="," horiz-adv-x="380" 
d="M192 297q82 0 126 -44t44 -125q0 -104 -69.5 -161t-197.5 -57l-25 95q54 0 86.5 14.5t41.5 42.5h-2q-29 -19 -69 -19q-49 0 -79 31t-30 82q0 31 12.5 57t35 45t54.5 29t72 10z" />
    <glyph glyph-name="hyphen" unicode="-" horiz-adv-x="362" 
d="M342 219h-322v222h322v-222z" />
    <glyph glyph-name="period" unicode="." horiz-adv-x="380" 
d="M190 297q82 0 127 -41.5t45 -117.5q0 -75 -45 -116.5t-127 -41.5t-127 41.5t-45 116.5q0 76 45 117.5t127 41.5z" />
    <glyph glyph-name="slash" unicode="/" horiz-adv-x="402" 
d="M186 -35h-196l226 735h196z" />
    <glyph glyph-name="zero" unicode="0" horiz-adv-x="806" 
d="M403 720q103 0 176.5 -21t120.5 -66t69 -115t22 -168t-22 -168t-69 -115t-120.5 -66t-176.5 -21t-176.5 21t-120.5 66t-69 115t-22 168t22 168t69 115t120.5 66t176.5 21zM403 473q-12 0 -19.5 -5t-12 -18.5t-6 -37.5t-1.5 -62t1.5 -62t6 -37.5t12 -18.5t19.5 -5t19.5 5
t12 18.5t6 37.5t1.5 62t-1.5 62t-6 37.5t-12 18.5t-19.5 5z" />
    <glyph glyph-name="one" unicode="1" horiz-adv-x="576" 
d="M29 0v252h121v146h-121v242q20 1 38.5 3.5t36.5 9t36.5 17.5t38.5 30h305v-448h83v-252h-538z" />
    <glyph glyph-name="two" unicode="2" horiz-adv-x="710" 
d="M371 720q88 0 151 -12t102.5 -37.5t58 -65.5t18.5 -97q0 -60 -19.5 -99.5t-55.5 -63.5t-86 -36.5t-111 -18.5q-44 -5 -65 -11.5t-21 -26.5h338v-252h-674v135q0 69 18.5 119.5t56 86.5t93.5 58.5t132 35.5q24 4 35 7t11 11q0 6 -14 8.5t-46 2.5q-74 0 -142.5 -11
t-116.5 -30l-10 267q42 8 81 14t80 9.5t86 5t100 1.5z" />
    <glyph glyph-name="three" unicode="3" horiz-adv-x="720" 
d="M342 720q98 0 166.5 -11t111 -35.5t62 -64t19.5 -97.5q0 -66 -24.5 -103.5t-78.5 -55.5v-2q60 -17 87 -56t27 -108q0 -57 -20.5 -96.5t-66 -64t-119.5 -35.5t-182 -11q-88 0 -167 6.5t-145 18.5l10 241q91 -19 234 -19q33 0 53.5 1t32.5 4t16.5 8t4.5 13q0 14 -15 19
t-59 5h-241v155h236q44 0 59 5t15 19q0 16 -18 21t-71 5q-54 0 -111 -3.5t-126 -11.5l-10 228q71 12 155 18.5t165 6.5z" />
    <glyph glyph-name="four" unicode="4" horiz-adv-x="760" 
d="M708 90v-90h-334v90h-362v220l213 390h483v-370h40v-240h-40zM317 320h70l18 185h-25z" />
    <glyph glyph-name="five" unicode="5" horiz-adv-x="724" 
d="M686 453h-370l-2 -41q13 1 29 1h51q89 0 150.5 -11t99.5 -35t55 -63t17 -96q0 -63 -21 -106.5t-67.5 -70.5t-121.5 -39t-184 -12q-84 0 -165.5 6.5t-145.5 18.5l10 239q27 -5 53.5 -8t54.5 -5t59 -3t69 -1q34 0 55.5 1t33.5 4t16.5 8t4.5 13q0 9 -5 14t-19.5 8t-40 4
t-67.5 1q-60 0 -111.5 -1.5t-93.5 -3.5l10 425h646v-247z" />
    <glyph glyph-name="six" unicode="6" horiz-adv-x="776" 
d="M480 720q63 0 127 -5.5t124 -16.5l-10 -241q-40 9 -81 13.5t-88 4.5q-45 0 -77.5 -5t-55.5 -15.5t-37 -27t-22 -40.5h2q54 42 168 42q123 0 182 -49t59 -151q0 -126 -88 -187.5t-269 -61.5q-104 0 -179.5 20.5t-124 64t-72 110.5t-23.5 160q0 100 27.5 172.5t84.5 120
t145 70t208 22.5zM405 313q-26 0 -41 -21v-39q0 -35 9.5 -50.5t31.5 -15.5q20 0 28.5 14t8.5 49t-8.5 49t-28.5 14z" />
    <glyph glyph-name="seven" unicode="7" horiz-adv-x="708" 
d="M698 457q-240 -207 -266 -457h-395q16 71 39 132t56 115.5t77 103.5t100 97h-297v252h686v-243z" />
    <glyph glyph-name="eight" unicode="8" horiz-adv-x="802" 
d="M406 720q99 0 168 -11t112.5 -34.5t63 -61t19.5 -91.5q0 -50 -18 -85.5t-63 -59.5v-2q107 -46 107 -180q0 -59 -21 -100t-68.5 -66.5t-123 -37t-184.5 -11.5q-106 0 -180.5 10.5t-121 34t-68 61t-21.5 91.5q0 60 26.5 98t86.5 61v2q-87 46 -87 168q0 58 20 99t64.5 66.5
t115.5 37t173 11.5zM401 549q-40 0 -40 -52q0 -27 13 -42.5t40 -23.5q27 16 27 62q0 56 -40 56zM392 278q-31 -15 -31 -62q0 -56 40 -56t40 52t-49 66z" />
    <glyph glyph-name="nine" unicode="9" horiz-adv-x="776" 
d="M362 720q105 0 180.5 -21.5t124 -65t71.5 -110.5t23 -158q0 -99 -27 -172t-84 -120t-145.5 -70t-210.5 -23q-67 0 -131 6t-118 16l10 241q45 -11 86.5 -14.5t81.5 -3.5q86 0 131 19t62 69h-2q-54 -42 -168 -42q-125 0 -183 50t-58 150q0 128 89 188.5t268 60.5zM371 513
q-20 0 -28.5 -14t-8.5 -49t8.5 -49t28.5 -14q26 0 41 21v39q0 35 -9.5 50.5t-31.5 15.5z" />
    <glyph glyph-name="colon" unicode=":" horiz-adv-x="364" 
d="M182 640q78 0 121 -39t43 -111t-43 -111.5t-121 -39.5t-121 39.5t-43 111.5t43 111t121 39zM182 281q78 0 121 -39t43 -111t-43 -111.5t-121 -39.5t-121 39.5t-43 111.5t43 111t121 39z" />
    <glyph glyph-name="semicolon" unicode=";" horiz-adv-x="364" 
d="M182 640q78 0 121 -39t43 -111t-43 -111.5t-121 -39.5t-121 39.5t-43 111.5t43 111t121 39zM184 281q78 0 120 -42t42 -121q0 -99 -66.5 -153.5t-187.5 -54.5l-24 90q104 0 122 55h-2q-29 -18 -64 -18q-48 0 -77 29t-29 79q0 60 44.5 98t121.5 38z" />
    <glyph glyph-name="less" unicode="&#x3c;" 
d="M31 435l588 218v-215l-291 -98l291 -98v-215l-588 218v190z" />
    <glyph glyph-name="equal" unicode="=" 
d="M619 378h-588v200h588v-200zM619 102h-588v200h588v-200z" />
    <glyph glyph-name="greater" unicode="&#x3e;" 
d="M619 245l-588 -218v215l291 98l-291 98v215l588 -218v-190z" />
    <glyph glyph-name="question" unicode="?" horiz-adv-x="626" 
d="M271 720q97 0 164 -12t108.5 -38.5t60 -69.5t18.5 -105q0 -46 -9.5 -78.5t-29 -55.5t-48.5 -40t-68 -33q-18 -7 -30 -12t-20.5 -10.5t-15 -11t-12.5 -14.5q-50 26 -137 26q-85 0 -137 -26q-1 10 -1.5 16.5t-0.5 11.5q0 49 24.5 82t84.5 64q18 9 27 15.5t9 15.5
q0 25 -73 25q-47 0 -91 -10.5t-76 -29.5l-10 265q65 13 130.5 19t132.5 6zM252 228q88 0 130 -30.5t42 -93.5t-42 -93.5t-130 -30.5t-130 30.5t-42 93.5t42 93.5t130 30.5z" />
    <glyph glyph-name="at" unicode="@" horiz-adv-x="900" 
d="M677 342q-3 -21 -3 -39q0 -52 29 -52q20 0 29 22.5t9 71.5q0 127 -63.5 184t-203.5 57q-315 0 -315 -270q0 -267 309 -267q69 0 134 12.5t115 35.5v-147q-31 -11 -58.5 -18.5t-54.5 -12.5t-55 -7t-60 -2q-232 0 -353.5 101t-121.5 295q0 97 31 174t90 130t143 81.5
t191 28.5q99 0 176.5 -24t131 -70.5t81.5 -113.5t28 -152q0 -239 -233 -239q-118 0 -155 60q-24 -32 -55 -46t-73 -14q-152 0 -152 175q0 102 47.5 160.5t131.5 58.5q69 0 112 -46l10 31h175zM449 251q21 0 35 20l11 98q-11 14 -31 14q-23 0 -35.5 -21t-12.5 -59
q0 -29 8 -40.5t25 -11.5z" />
    <glyph glyph-name="A" unicode="A" horiz-adv-x="881" 
d="M388 100l-9 -100h-384l129 700h633l129 -700h-390l-9 100h-99zM454 476h-33l-16 -187h66z" />
    <glyph glyph-name="B" unicode="B" horiz-adv-x="887" 
d="M535 700q94 0 156.5 -9t100 -30t53 -56.5t15.5 -88.5q0 -72 -28.5 -109t-95.5 -53v-5q82 -15 115.5 -52.5t33.5 -113.5q0 -53 -16 -88.5t-54.5 -56.5t-103 -29.5t-162.5 -8.5h-512v700h498zM411 537v-114h16q38 0 53 12.5t15 44.5t-15 44.5t-53 12.5h-16zM411 276v-114
h16q38 0 53 12.5t15 44.5t-15 44.5t-53 12.5h-16z" />
    <glyph glyph-name="C" unicode="C" horiz-adv-x="707" 
d="M452 720q30 0 57.5 -1.5t55.5 -5t57.5 -9t62.5 -13.5l-12 -313q-35 9 -81 14.5t-90 5.5q-54 0 -77 -10.5t-23 -37.5t23 -37.5t77 -10.5q45 0 90.5 5.5t80.5 14.5l12 -313q-33 -8 -62.5 -13.5t-57.5 -9t-55.5 -5t-57.5 -1.5q-117 0 -200 21t-136.5 66t-78.5 115t-25 168
t25 168t78.5 115t136.5 66t200 21z" />
    <glyph glyph-name="D" unicode="D" horiz-adv-x="897" 
d="M439 700q124 0 209.5 -18t138 -59.5t75.5 -108.5t23 -164q0 -98 -23 -164.5t-75.5 -108t-138 -59.5t-209.5 -18h-402v700h402zM411 459v-218h16q20 0 33 5t21 17.5t11 33.5t3 53t-3 53t-11 33.5t-21 17.5t-33 5h-16z" />
    <glyph glyph-name="E" unicode="E" horiz-adv-x="719" 
d="M695 477h-284v-53h264v-148h-264v-53h284v-223h-658v700h658v-223z" />
    <glyph glyph-name="F" unicode="F" horiz-adv-x="694" 
d="M680 442h-269v-53h249v-239h-249v-150h-374v700h643v-258z" />
    <glyph glyph-name="G" unicode="G" horiz-adv-x="757" 
d="M481 720q59 0 117 -5t127 -16l-12 -293q-48 5 -95 7.5t-81 2.5q-74 0 -104.5 -16t-30.5 -56q0 -34 19.5 -50t61.5 -16v73h251v-340q-115 -31 -261 -31q-122 0 -209.5 21t-143.5 66t-82 115t-26 168q0 99 26.5 169t83.5 114.5t145.5 65.5t213.5 21z" />
    <glyph glyph-name="H" unicode="H" horiz-adv-x="898" 
d="M861 0h-374v222h-76v-222h-374v700h374v-222h76v222h374v-700z" />
    <glyph glyph-name="I" unicode="I" horiz-adv-x="448" 
d="M411 0h-374v700h374v-700z" />
    <glyph glyph-name="J" unicode="J" horiz-adv-x="479" 
d="M457 225q0 -66 -15 -112.5t-47 -76t-83 -43t-123 -13.5q-49 0 -94 6t-90 18v317q8 -2 19.5 -2.5t18.5 -0.5q40 0 40 38v344h374v-475z" />
    <glyph glyph-name="K" unicode="K" horiz-adv-x="886" 
d="M411 254v-254h-374v700h374v-253h30l54 253h391l-106 -349l112 -351h-397l-54 254h-30z" />
    <glyph glyph-name="L" unicode="L" horiz-adv-x="644" 
d="M411 276h224v-276h-598v700h374v-424z" />
    <glyph glyph-name="M" unicode="M" horiz-adv-x="1226" 
d="M1189 0h-341v374h-28l-55 -374h-310l-55 374h-28v-374h-335v700h522l27 -351h28l27 351h548v-700z" />
    <glyph glyph-name="N" unicode="N" horiz-adv-x="994" 
d="M457 0l-56 357h-29v-357h-335v700h506l56 -357h23v357h335v-700h-500z" />
    <glyph glyph-name="O" unicode="O" horiz-adv-x="892" 
d="M446 720q224 0 329 -89.5t105 -280.5t-105 -280.5t-329 -89.5t-329 89.5t-105 280.5t105 280.5t329 89.5zM446 459q-25 0 -34.5 -23.5t-9.5 -85.5t9.5 -85.5t34.5 -23.5t34.5 23.5t9.5 85.5t-9.5 85.5t-34.5 23.5z" />
    <glyph glyph-name="P" unicode="P" horiz-adv-x="876" 
d="M438 700q127 0 211.5 -13.5t134 -46.5t70 -89t20.5 -140t-20.5 -140t-70 -89t-134 -46.5t-211.5 -13.5h-28v-122h-373v700h401zM410 507v-192h16q39 0 53.5 20.5t14.5 75.5t-14.5 75.5t-53.5 20.5h-16z" />
    <glyph glyph-name="Q" unicode="Q" horiz-adv-x="892" 
d="M746 139q9 -2 21 -2.5t24 -0.5q23 0 43 3t43 11v-220q-36 -11 -78 -15.5t-92 -4.5q-97 0 -161.5 17.5t-106.5 52.5q-221 1 -324 91t-103 279q0 190 104.5 280t327.5 90q221 0 328.5 -84t107.5 -258q0 -94 -32.5 -150.5t-101.5 -83.5v-5zM446 456q-26 0 -35 -22.5
t-9 -84.5t9 -85t35 -23q25 0 34.5 23t9.5 85t-9 84.5t-35 22.5z" />
    <glyph glyph-name="R" unicode="R" horiz-adv-x="890" 
d="M535 700q93 0 157.5 -13.5t104.5 -44t58 -79t18 -118.5q0 -75 -20.5 -121t-66.5 -75l108 -249h-396l-55 184h-33v-184h-373v700h498zM410 518v-152h16q38 0 53 17t15 59t-15 59t-53 17h-16z" />
    <glyph glyph-name="S" unicode="S" horiz-adv-x="730" 
d="M403 720q78 0 152 -7t145 -22l-11 -258q-28 20 -78 32t-109 12q-48 0 -68.5 -8.5t-20.5 -31.5q160 0 235 -52t75 -170q0 -63 -21.5 -108t-68 -73t-120.5 -41t-179 -13q-78 0 -156 7t-165 22l12 269q32 -21 89.5 -33.5t122.5 -12.5q51 0 72.5 9t21.5 32q-84 0 -144.5 12
t-99.5 38t-57.5 66.5t-18.5 98.5q0 62 21.5 106t68.5 72t121.5 41t180.5 13z" />
    <glyph glyph-name="T" unicode="T" horiz-adv-x="676" 
d="M667 424h-142v-424h-374v424h-142v276h658v-276z" />
    <glyph glyph-name="U" unicode="U" horiz-adv-x="868" 
d="M840 300q0 -90 -20.5 -151.5t-68 -99t-124.5 -53.5t-190 -16q-114 0 -192.5 16.5t-126.5 54t-69 99t-21 150.5v400h373v-384q0 -43 8 -59t30 -16t30 16t8 59v384h363v-400z" />
    <glyph glyph-name="V" unicode="V" horiz-adv-x="848" 
d="M719 0h-590l-134 700h391l27 -446h28l27 446h385z" />
    <glyph glyph-name="W" unicode="W" horiz-adv-x="1316" 
d="M1209 0h-511l-27 426h-18l-27 -426h-519l-111 700h381l27 -446h28l27 446h405l27 -446h28l27 446h374z" />
    <glyph glyph-name="X" unicode="X" horiz-adv-x="886" 
d="M395 0h-387l81 333l-78 367h391l30 -253h28l28 253h387l-80 -357l83 -343h-395l-30 254h-28z" />
    <glyph glyph-name="Y" unicode="Y" horiz-adv-x="795" 
d="M586 0h-378v194l-258 506h417l20 -229h28l20 229h410l-259 -508v-192z" />
    <glyph glyph-name="Z" unicode="Z" horiz-adv-x="768" 
d="M483 256h263v-256h-726v231l263 213h-253v256h716v-231z" />
    <glyph glyph-name="bracketleft" unicode="[" horiz-adv-x="416" 
d="M314 132h82v-202h-359v790h359v-202h-82v-386z" />
    <glyph glyph-name="backslash" unicode="\" horiz-adv-x="402" 
d="M412 -35h-196l-226 735h196z" />
    <glyph glyph-name="bracketright" unicode="]" horiz-adv-x="416" 
d="M102 518h-82v202h359v-790h-359v202h82v386z" />
    <glyph glyph-name="asciicircum" unicode="^" 
d="M325 496l-86 -184h-239l216 388h218l216 -388h-239z" />
    <glyph glyph-name="underscore" unicode="_" horiz-adv-x="480" 
d="M485 -70h-490v70h490v-70z" />
    <glyph glyph-name="grave" unicode="`" horiz-adv-x="480" 
d="M413 717v-67l-368 30v136z" />
    <glyph glyph-name="a" unicode="a" horiz-adv-x="738" 
d="M314 640q112 0 188.5 -16t123.5 -52.5t67.5 -96t20.5 -146.5v-192q0 -45 2.5 -75.5t7.5 -61.5h-315l-13 56h-2q-61 -76 -193 -76q-192 0 -192 174q0 178 205 178q48 0 91 -8.5t72 -23.5h2v2q0 38 -35 56t-110 18q-60 0 -113 -10.5t-85 -29.5l-10 279q65 12 139 18.5
t149 6.5zM350 221q-21 0 -29.5 -11t-8.5 -40t8.5 -40t29.5 -11q18 0 29 8v86q-11 8 -29 8z" />
    <glyph glyph-name="b" unicode="b" horiz-adv-x="799" 
d="M367 554h2q64 86 183 86q118 0 177 -81t59 -239q0 -340 -291 -340q-60 0 -104 15.5t-85 52.5h-2l-27 -48h-246v700h334v-146zM397 393q-18 0 -30 -9v-148q12 -9 30 -9q23 0 32.5 18.5t9.5 64.5t-9.5 64.5t-32.5 18.5z" />
    <glyph glyph-name="c" unicode="c" horiz-adv-x="631" 
d="M401 640q56 0 103.5 -5.5t105.5 -19.5l-10 -285q-26 9 -67 14t-86 5q-50 0 -68.5 -8.5t-18.5 -30.5q0 -23 18.5 -31t68.5 -8q45 0 86 5t67 14l10 -285q-58 -14 -105.5 -19.5t-103.5 -5.5q-103 0 -177 19t-121 59t-69.5 102.5t-22.5 149.5t22.5 149.5t69.5 102.5t121 59
t177 19z" />
    <glyph glyph-name="d" unicode="d" horiz-adv-x="794" 
d="M766 137q0 -45 2.5 -75.5t7.5 -61.5h-329l-7 82h-2q-61 -102 -190 -102q-119 0 -178 82t-59 243q0 335 263 335q97 0 156 -46h2v106h334v-563zM402 393q-23 0 -32.5 -18.5t-9.5 -64.5t9.5 -64.5t32.5 -18.5q18 0 30 9v148q-12 9 -30 9z" />
    <glyph glyph-name="e" unicode="e" horiz-adv-x="726" 
d="M385 640q172 0 252.5 -59t80.5 -185q0 -24 -2.5 -52t-6.5 -40h-347q4 -29 33.5 -40t98.5 -11q52 0 95 5.5t94 18.5l10 -272q-56 -12 -118 -18.5t-132 -6.5q-115 0 -196.5 19t-134 59.5t-77 103.5t-24.5 152q0 169 90 247.5t284 78.5zM401 464q-24 0 -32.5 -17t-9.5 -65
h84q-1 48 -9.5 65t-32.5 17z" />
    <glyph glyph-name="f" unicode="f" horiz-adv-x="515" 
d="M329 720q46 0 85.5 -4.5t82.5 -15.5v-260q-16 5 -38.5 7.5t-42.5 2.5q-32 0 -44 -10.5t-12 -41.5h137v-242h-132v-156h-335v461q0 70 16.5 119t52.5 80t92.5 45.5t137.5 14.5z" />
    <glyph glyph-name="g" unicode="g" horiz-adv-x="767" 
d="M739 233q0 -92 -21 -154t-69.5 -99.5t-129 -53.5t-200.5 -16q-39 0 -72.5 1.5t-65 5.5t-63.5 9.5t-68 14.5l-9 260q19 -11 45 -20t56 -15t63.5 -9.5t66.5 -3.5q75 0 103.5 22t28.5 78v3h-2q-41 -61 -164 -61q-115 0 -172 54.5t-57 160.5q0 114 64 172t184 58
q119 0 200 -55l11 35h271v-387zM374 443q-21 0 -29 -12.5t-8 -42.5q0 -32 8 -44.5t28 -12.5t31 17v86q-12 9 -30 9z" />
    <glyph glyph-name="h" unicode="h" horiz-adv-x="796" 
d="M367 538h2q35 54 81.5 78t117.5 24q54 0 92 -14t61.5 -44t34.5 -77.5t11 -114.5v-390h-334v339q0 30 -7.5 42t-27.5 12q-21 0 -31 -9v-384h-334v700h334v-162z" />
    <glyph glyph-name="i" unicode="i" horiz-adv-x="396" 
d="M198 720q88 0 130 -30.5t42 -93.5t-42 -93.5t-130 -30.5t-130 30.5t-42 93.5t42 93.5t130 30.5zM365 0h-334v465q70 -30 167 -30q98 0 167 30v-465z" />
    <glyph glyph-name="j" unicode="j" horiz-adv-x="416" 
d="M218 720q88 0 130 -30.5t42 -93.5t-42 -93.5t-130 -30.5t-130 30.5t-42 93.5t42 93.5t130 30.5zM385 129q0 -62 -12.5 -104t-40 -67.5t-72 -36.5t-108.5 -11q-47 0 -85.5 5.5t-67.5 16.5v284q5 -2 13 -2.5t14 -0.5q13 0 19 4.5t6 18.5v229q70 -30 167 -30q98 0 167 30
v-336z" />
    <glyph glyph-name="k" unicode="k" horiz-adv-x="786" 
d="M367 0h-334v700h334v-302h26l45 222h352l-92 -309l98 -311h-358l-45 223h-26v-223z" />
    <glyph glyph-name="l" unicode="l" horiz-adv-x="400" 
d="M367 0h-334v700h334v-700z" />
    <glyph glyph-name="m" unicode="m" horiz-adv-x="1181" 
d="M950 640q55 0 93.5 -13.5t62.5 -43.5t35 -77.5t11 -115.5v-390h-329v339q0 30 -7.5 42t-27.5 12q-18 0 -31 -9v-384h-329v339q0 29 -7.5 41.5t-26.5 12.5q-8 0 -15 -2t-17 -7v-384h-329v620h314l7 -82h2q33 53 82 77.5t122 24.5t116.5 -24.5t62.5 -77.5h2q37 54 86 78
t123 24z" />
    <glyph glyph-name="n" unicode="n" horiz-adv-x="796" 
d="M566 640q55 0 93 -13.5t62 -43.5t35 -77.5t11 -115.5v-390h-334v339q0 30 -7.5 42t-27.5 12q-18 0 -31 -9v-384h-334v620h319l7 -82h2q33 54 82 78t123 24z" />
    <glyph glyph-name="o" unicode="o" horiz-adv-x="798" 
d="M399 640q200 0 294 -79.5t94 -250.5t-94 -250.5t-294 -79.5t-294 79.5t-94 250.5t94 250.5t294 79.5zM399 393q-23 0 -31 -17t-8 -66t8 -66t31 -17t31 17t8 66t-8 66t-31 17z" />
    <glyph glyph-name="p" unicode="p" horiz-adv-x="799" 
d="M551 640q119 0 178 -82t59 -243q0 -335 -262 -335q-98 0 -157 46h-2v-96h-334v690h319l7 -82h2q61 102 190 102zM397 393q-18 0 -30 -9v-148q12 -9 30 -9q23 0 32.5 18.5t9.5 64.5t-9.5 64.5t-32.5 18.5z" />
    <glyph glyph-name="q" unicode="q" horiz-adv-x="799" 
d="M303 640q54 0 99.5 -14t90.5 -54l27 48h246v-690h-334v136h-2q-30 -41 -74.5 -63.5t-107.5 -22.5q-117 0 -177 80t-60 240q0 91 19.5 155.5t57 105.5t92 60t123.5 19zM402 393q-23 0 -32.5 -17.5t-9.5 -65.5t9.5 -65.5t32.5 -17.5q18 0 30 9v148q-12 9 -30 9z" />
    <glyph glyph-name="r" unicode="r" horiz-adv-x="533" 
d="M478 640q8 0 21 -1t24 -4v-306q-13 4 -30.5 5t-26.5 1q-53 0 -75 -27.5t-22 -83.5v-224h-336v620h288l3 -111h2q6 34 21 59t35.5 41t45 23.5t50.5 7.5z" />
    <glyph glyph-name="s" unicode="s" horiz-adv-x="658" 
d="M364 640q64 0 129.5 -6t133.5 -19l-10 -235q-23 18 -66.5 29t-97.5 11q-48 0 -67 -7.5t-19 -24.5q282 0 282 -188q0 -62 -18.5 -104t-59.5 -67.5t-108.5 -37t-164.5 -11.5q-60 0 -130 6t-151 19l10 245q28 -20 78.5 -31.5t108.5 -11.5q48 0 69 7t21 27q-291 0 -291 179
q0 61 18.5 103.5t59.5 68t108 37t165 11.5z" />
    <glyph glyph-name="t" unicode="t" horiz-adv-x="504" 
d="M359 620h123v-242h-123v-62q0 -22 10.5 -31t39.5 -9q17 0 35 3t38 11v-290q-47 -11 -81 -15.5t-77 -4.5q-82 0 -139 14t-92.5 45t-51.5 80t-16 120v461h334v-80z" />
    <glyph glyph-name="u" unicode="u" horiz-adv-x="796" 
d="M763 0h-319l-7 82h-2q-35 -56 -84.5 -79t-119.5 -23q-55 0 -93.5 13.5t-62.5 43.5t-35 77.5t-11 115.5v390h334v-339q0 -30 7.5 -42t27.5 -12q17 0 31 9v384h334v-620z" />
    <glyph glyph-name="v" unicode="v" horiz-adv-x="755" 
d="M643 0h-531l-119 620h350l24 -378h26l24 378h345z" />
    <glyph glyph-name="w" unicode="w" horiz-adv-x="1173" 
d="M1080 0h-458l-25 358h-14l-25 -358h-465l-98 620h341l24 -378h24l24 378h363l24 -378h24l24 378h335z" />
    <glyph glyph-name="x" unicode="x" horiz-adv-x="779" 
d="M374 223l-24 -223h-343l71 295l-68 325h346l24 -222h25l23 222h341l-70 -316l73 -304h-349l-24 223h-25z" />
    <glyph glyph-name="y" unicode="y" horiz-adv-x="753" 
d="M674 158q-13 -64 -40 -111t-71.5 -77.5t-107.5 -45t-148 -14.5q-29 0 -62 1.5t-66.5 5.5t-65 9.5t-58.5 13.5l-10 260q45 -19 92 -27.5t98 -8.5q59 0 88 11.5t43 37.5h-2q-27 -5 -52.5 -7t-53.5 -2q-56 0 -93 7t-61 25.5t-38.5 51t-24.5 83.5l-48 249h350l21 -280
q1 -16 15 -16q6 0 14 3l24 293h345z" />
    <glyph glyph-name="z" unicode="z" horiz-adv-x="684" 
d="M445 242h215v-242h-638v210l215 168h-207v242h630v-210z" />
    <glyph glyph-name="braceleft" unicode="{" horiz-adv-x="414" 
d="M394 518h-24q-20 0 -29 -9t-9 -31v-45q0 -50 -15.5 -74.5t-52.5 -32.5v-2q37 -8 52.5 -32.5t15.5 -74.5v-45q0 -22 9 -31t29 -9h24v-202h-167q-47 0 -79.5 8.5t-53 27.5t-30 49t-9.5 73v110q0 27 -11.5 39t-38.5 13v150q27 1 38.5 13t11.5 39v110q0 85 39.5 121.5
t132.5 36.5h167v-202z" />
    <glyph glyph-name="bar" unicode="|" horiz-adv-x="380" 
d="M290 -85h-200v800h200v-800z" />
    <glyph glyph-name="braceright" unicode="}" horiz-adv-x="414" 
d="M20 132h24q20 0 29 9t9 31v45q0 50 15.5 74.5t52.5 32.5v2q-37 8 -52.5 32.5t-15.5 74.5v45q0 22 -9 31t-29 9h-24v202h167q93 0 132.5 -36.5t39.5 -121.5v-110q0 -27 11.5 -39t38.5 -13v-150q-27 -1 -38.5 -13t-11.5 -39v-110q0 -43 -9.5 -73t-30 -49t-53.5 -27.5
t-79 -8.5h-167v202z" />
    <glyph glyph-name="asciitilde" unicode="~" 
d="M186 282q-52 0 -92.5 -26.5t-72.5 -76.5v213q29 44 75 67t105 23q44 0 75.5 -12.5t67.5 -34.5q31 -19 58 -30.5t62 -11.5q52 0 92.5 26.5t72.5 76.5v-213q-29 -44 -75 -67t-105 -23q-44 0 -75.5 12.5t-67.5 34.5q-31 19 -58 30.5t-62 11.5z" />
    <glyph glyph-name="uni00A0" unicode="&#xa0;" horiz-adv-x="180" 
 />
    <glyph glyph-name="exclamdown" unicode="&#xa1;" horiz-adv-x="400" 
d="M200 402q-88 0 -130 30.5t-42 93.5t42 93.5t130 30.5t130 -30.5t42 -93.5t-42 -93.5t-130 -30.5zM43 395q23 -13 63 -22t94 -9q53 0 93 9t64 22l30 -465h-374z" />
    <glyph glyph-name="cent" unicode="&#xa2;" horiz-adv-x="631" 
d="M610 45q-48 -11 -88.5 -16.5t-84.5 -7.5v-61h-112v63q-83 6 -142 28.5t-97.5 62.5t-56.5 98.5t-18 137.5t18 137.5t56.5 98.5t97.5 62.5t142 28.5v43h112v-41q44 -2 84.5 -7.5t88.5 -16.5l-10 -285q-26 9 -67 14t-86 5q-50 0 -68.5 -8.5t-18.5 -30.5q0 -23 18.5 -31
t68.5 -8q45 0 86 5t67 14z" />
    <glyph glyph-name="sterling" unicode="&#xa3;" horiz-adv-x="692" 
d="M415 720q26 0 51 -1t52.5 -4t60 -8t73.5 -12l-10 -280q-30 18 -78 29t-94 11q-42 0 -58 -11.5t-16 -42.5h132v-104h-132v-45h286v-252h-660v232q20 3 29.5 16t9.5 39v10h-39v104h39v20q0 81 19.5 138t61.5 92.5t109.5 52t163.5 16.5z" />
    <glyph glyph-name="currency" unicode="&#xa4;" horiz-adv-x="702" 
d="M619 350q0 -32 -4.5 -59t-14.5 -49l106 -91l-150 -150l-96 112q-47 -15 -104 -15q-59 0 -112 17l-98 -114l-150 150l112 96q-17 49 -17 103t17 103l-112 96l150 150l98 -114q53 17 112 17q57 0 104 -15l96 112l150 -150l-106 -91q10 -22 14.5 -49t4.5 -59zM355 290
q53 0 53 60t-53 60t-53 -60t53 -60z" />
    <glyph glyph-name="yen" unicode="&#xa5;" horiz-adv-x="823" 
d="M779 241h-201v-36h201v-107h-201v-98h-334v98h-201v107h201v36h-201v107h147l-200 352h389l28 -277h15l28 277h383l-200 -352h146v-107z" />
    <glyph glyph-name="brokenbar" unicode="&#xa6;" horiz-adv-x="380" 
d="M290 365h-200v350h200v-350zM290 -85h-200v350h200v-350z" />
    <glyph glyph-name="section" unicode="&#xa7;" horiz-adv-x="680" 
d="M600 224q36 -23 52 -53.5t16 -76.5q0 -50 -19.5 -85t-61.5 -57t-109.5 -32t-163.5 -10q-72 0 -141.5 5.5t-156.5 16.5l10 204q63 -37 200 -37q58 0 80 7.5t22 28.5q-88 0 -148.5 7t-97.5 24t-53.5 44t-16.5 68q0 45 18.5 78.5t56.5 50.5v2q-40 23 -57.5 52.5t-17.5 77.5
q0 49 19 83.5t62 56.5t111.5 31.5t167.5 9.5q75 0 141.5 -5t132.5 -16l-10 -195q-25 17 -68 25.5t-103 8.5q-58 0 -81 -7.5t-23 -26.5q85 0 143.5 -7.5t95 -25.5t52.5 -46.5t16 -70.5q0 -92 -68 -128v-2zM393 280q8 5 13 13.5t5 17.5t-5.5 14.5t-19 8.5t-37 4.5t-58.5 1.5
q-8 -5 -13 -13.5t-5 -17.5t5.5 -14.5t19.5 -8.5t37 -4.5t58 -1.5z" />
    <glyph glyph-name="dieresis" unicode="&#xa8;" horiz-adv-x="480" 
d="M121 810q54 0 77.5 -17.5t23.5 -58.5q0 -42 -23.5 -59.5t-77.5 -17.5t-77.5 17.5t-23.5 59.5q0 41 23.5 58.5t77.5 17.5zM359 810q54 0 77.5 -17.5t23.5 -58.5q0 -42 -23.5 -59.5t-77.5 -17.5t-77.5 17.5t-23.5 59.5q0 41 23.5 58.5t77.5 17.5z" />
    <glyph glyph-name="copyright" unicode="&#xa9;" horiz-adv-x="779" 
d="M390 720q85 0 154.5 -26t118.5 -74.5t75.5 -116.5t26.5 -152t-26.5 -152.5t-75.5 -116.5t-118.5 -74.5t-154.5 -26.5q-86 0 -155 26.5t-118.5 74.5t-76 116.5t-26.5 152.5t26.5 152t76 116.5t118.5 74.5t155 26zM390 625q-131 0 -203 -72t-72 -202q0 -131 72 -203
t203 -72q130 0 202 72t72 203q0 130 -72 202t-202 72zM420 545q31 0 59 -3.5t63 -12.5l-6 -164q-18 5 -42.5 7.5t-47.5 2.5q-29 0 -41 -5.5t-12 -19.5t12 -19.5t41 -5.5q23 0 47.5 2.5t42.5 7.5l6 -164q-35 -9 -63 -12.5t-59 -3.5q-62 0 -105.5 11t-72 34.5t-41.5 60.5
t-13 89q0 103 54.5 149t177.5 46z" />
    <glyph glyph-name="ordfeminine" unicode="&#xaa;" horiz-adv-x="578" 
d="M246 720q86 0 145 -12.5t95 -40.5t52 -73.5t16 -112.5v-148q0 -35 1.5 -58t6.5 -47h-242l-10 43h-2q-47 -58 -148 -58q-148 0 -148 133q0 137 158 137q36 0 69 -6.5t56 -17.5h1v1q0 29 -26.5 43t-84.5 14q-47 0 -87.5 -8t-64.5 -23l-8 215q50 9 107 14t114 5zM274 398
q-16 0 -22.5 -8t-6.5 -31t6.5 -31t22.5 -8q15 0 22 6v66q-9 6 -22 6zM551 0h-523v195h523v-195z" />
    <glyph glyph-name="guillemotleft" unicode="&#xab;" horiz-adv-x="642" 
d="M102 105l-100 205l100 205h236l-91 -205l91 -205h-236zM404 105l-100 205l100 205h236l-91 -205l91 -205h-236z" />
    <glyph glyph-name="logicalnot" unicode="&#xac;" 
d="M429 36v204h-408v200h608v-404h-200z" />
    <glyph glyph-name="uni00AD" unicode="&#xad;" horiz-adv-x="362" 
d="M342 219h-322v222h322v-222z" />
    <glyph glyph-name="registered" unicode="&#xae;" horiz-adv-x="779" 
d="M390 720q85 0 154.5 -26t118.5 -74.5t75.5 -116.5t26.5 -152t-26.5 -152.5t-75.5 -116.5t-118.5 -74.5t-154.5 -26.5q-86 0 -155 26.5t-118.5 74.5t-76 116.5t-26.5 152.5t26.5 152t76 116.5t118.5 74.5t155 26zM617 179q47 68 47 172q0 130 -72 202t-202 72
q-131 0 -203 -72t-72 -202q0 -131 72 -203t203 -72q76 0 132.5 25.5t91.5 73.5h-193l-27 92h-17v-92h-186v350h249q46 0 78.5 -7t52.5 -22t29 -39t9 -59q0 -38 -10.5 -61t-33.5 -37zM419 396q0 21 -7.5 29.5t-26.5 8.5h-8v-76h8q19 0 26.5 8.5t7.5 29.5z" />
    <glyph glyph-name="macron" unicode="&#xaf;" horiz-adv-x="480" 
d="M424 670h-368v106h368v-106z" />
    <glyph glyph-name="degree" unicode="&#xb0;" horiz-adv-x="423" 
d="M212 720q94 0 146.5 -51t52.5 -144q0 -92 -52.5 -143t-146.5 -51q-95 0 -147.5 51t-52.5 143q0 93 52.5 144t147.5 51zM212 571q-44 0 -44 -46q0 -21 11.5 -33t32.5 -12q20 0 31.5 12t11.5 33q0 46 -43 46z" />
    <glyph glyph-name="plusminus" unicode="&#xb1;" 
d="M624 222v-205h-598v205h199v97h-199v196h199v158h200v-158h199v-196h-199v-97h199z" />
    <glyph glyph-name="uni00B2" unicode="&#xb2;" horiz-adv-x="479" 
d="M250 780q118 0 169 -33t51 -109q0 -33 -10.5 -57t-32 -40t-54.5 -26t-79 -15q-33 -4 -48 -8.5t-15 -19.5h225v-165h-449v90q0 85 50.5 129.5t145.5 58.5q22 3 28.5 6t6.5 11q0 5 -8.5 7.5t-34.5 2.5q-48 0 -93.5 -7t-76.5 -20l-7 175q27 6 52.5 9.5t53 6t58 3.5t68.5 1z
" />
    <glyph glyph-name="uni00B3" unicode="&#xb3;" horiz-adv-x="487" 
d="M403 533q40 -11 58 -37t18 -71q0 -38 -13.5 -64.5t-44 -43t-79.5 -23.5t-121 -7q-59 0 -111.5 4t-97.5 12l7 158q29 -7 67.5 -10t82.5 -3q43 0 60 4t17 16q0 11 -11 15t-38 4h-161v99h157q29 0 39.5 3.5t10.5 14.5q0 12 -14.5 16t-52.5 4q-34 0 -73 -2.5t-78 -7.5l-6 149
q44 8 99.5 12.5t110.5 4.5q67 0 113 -7t74.5 -23.5t41.5 -43t13 -64.5q0 -44 -16.5 -69.5t-51.5 -37.5v-2z" />
    <glyph glyph-name="acute" unicode="&#xb4;" horiz-adv-x="480" 
d="M435 680l-368 -30v67l368 99v-136z" />
    <glyph glyph-name="mu" unicode="&#xb5;" horiz-adv-x="800" 
d="M733 0h-319l2 92h-2q-30 -53 -79 -82l-9 -80h-334l72 690h334l-35 -339q-1 -7 -1 -10.5v-9.5q0 -18 6.5 -26t23.5 -8t32 9l40 384h334z" />
    <glyph glyph-name="paragraph" unicode="&#xb6;" horiz-adv-x="755" 
d="M697 -70h-196v574h-66v-574h-196v308h-4q-118 0 -175.5 56.5t-57.5 174.5t57.5 174.5t175.5 56.5h510v-196h-48v-574z" />
    <glyph glyph-name="periodcentered" unicode="&#xb7;" horiz-adv-x="320" 
d="M160 481q68 0 105 -34t37 -97t-37 -97t-105 -34t-105 34t-37 97t37 97t105 34z" />
    <glyph glyph-name="cedilla" unicode="&#xb8;" horiz-adv-x="480" 
d="M310 0q48 -18 48 -72q0 -92 -136 -92q-28 0 -54.5 3.5t-45.5 10.5l4 98q32 -8 61 -8q28 0 40 8t12 27q0 14 -7 25h78z" />
    <glyph glyph-name="uni00B9" unicode="&#xb9;" horiz-adv-x="397" 
d="M29 307v165h81v90h-81v158q26 2 50 8.5t50 31.5h203v-288h56v-165h-359z" />
    <glyph glyph-name="ordmasculine" unicode="&#xba;" horiz-adv-x="625" 
d="M312 720q154 0 226 -61t72 -193q0 -131 -72 -192t-226 -61t-226.5 61t-72.5 192q0 132 72.5 193t226.5 61zM312 530q-17 0 -23.5 -13t-6.5 -51t6.5 -50.5t23.5 -12.5t23.5 12.5t6.5 50.5t-6.5 51t-23.5 13zM598 0h-571v195h571v-195z" />
    <glyph glyph-name="guillemotright" unicode="&#xbb;" horiz-adv-x="642" 
d="M238 515l100 -205l-100 -205h-236l91 205l-91 205h236zM540 515l100 -205l-100 -205h-236l91 205l-91 205h236z" />
    <glyph glyph-name="onequarter" unicode="&#xbc;" horiz-adv-x="984" 
d="M709 700l-396 -700h-116l140 247h-308v165h81v90h-81v158q26 2 50 8.5t50 31.5h203v-288h56v-74l205 362h116zM972 220v-160h-27v-60h-223v60h-241v147l142 246h322v-233h27zM745 328h-15l-49 -118h54z" />
    <glyph glyph-name="onehalf" unicode="&#xbd;" horiz-adv-x="988" 
d="M803 193q-33 -4 -48 -8.5t-15 -19.5h225v-165h-449v90q0 85 50.5 129.5t145.5 58.5q22 3 28.5 6t6.5 11q0 5 -8.5 7.5t-34.5 2.5q-48 0 -93.5 -7t-76.5 -20l-4 105l-217 -383h-116l140 247h-308v165h81v90h-81v158q26 2 50 8.5t50 31.5h203v-288h56v-74l205 362h116
l-135 -238q41 6 83 8.5t102 2.5q118 0 169 -33t51 -109q0 -33 -10.5 -57t-32 -40t-54.5 -26t-79 -15z" />
    <glyph glyph-name="threequarters" unicode="&#xbe;" horiz-adv-x="1074" 
d="M799 700l-396 -700h-116l152 269q-29 -23 -81.5 -32.5t-136.5 -9.5q-59 0 -111.5 4t-97.5 12l7 158q29 -7 67.5 -10t82.5 -3q43 0 60 4t17 16q0 11 -11 15t-38 4h-161v99h157q29 0 39.5 3.5t10.5 14.5q0 12 -14.5 16t-52.5 4q-34 0 -73 -2.5t-78 -7.5l-6 149
q44 8 99.5 12.5t110.5 4.5q67 0 113 -7t74.5 -23.5t41.5 -43t13 -64.5q0 -44 -16.5 -69.5t-51.5 -37.5v-2q40 -11 58 -37t18 -71q0 -8 -0.5 -15t-1.5 -15l206 365h116zM1062 220v-160h-27v-60h-223v60h-241v147l142 246h322v-233h27zM835 328h-15l-49 -118h54z" />
    <glyph glyph-name="questiondown" unicode="&#xbf;" horiz-adv-x="626" 
d="M374 402q-88 0 -130 30.5t-42 93.5t42 93.5t130 30.5t130 -30.5t42 -93.5t-42 -93.5t-130 -30.5zM355 -90q-97 0 -164 12t-108.5 38.5t-60 69.5t-18.5 105q0 46 9.5 78.5t29 55.5t48.5 40t68 33q18 7 30 12t20.5 10.5t15 11t12.5 14.5q50 -26 137 -26q85 0 137 26
q1 -10 1.5 -16.5t0.5 -11.5q0 -49 -24.5 -82t-84.5 -64q-18 -9 -27 -15.5t-9 -15.5q0 -25 73 -25q47 0 91 10.5t76 29.5l10 -265q-65 -13 -130.5 -19t-132.5 -6z" />
    <glyph glyph-name="Agrave" unicode="&#xc0;" horiz-adv-x="881" 
d="M614 797v-67l-368 30v136zM388 100l-9 -100h-384l129 700h633l129 -700h-390l-9 100h-99zM454 476h-33l-16 -187h66z" />
    <glyph glyph-name="Aacute" unicode="&#xc1;" horiz-adv-x="881" 
d="M636 760l-368 -30v67l368 99v-136zM388 100l-9 -100h-384l129 700h633l129 -700h-390l-9 100h-99zM454 476h-33l-16 -187h66z" />
    <glyph glyph-name="Acircumflex" unicode="&#xc2;" horiz-adv-x="881" 
d="M441 780l-224 -50v67l204 99h40l204 -99v-67zM388 100l-9 -100h-384l129 700h633l129 -700h-390l-9 100h-99zM454 476h-33l-16 -187h66z" />
    <glyph glyph-name="Atilde" unicode="&#xc3;" horiz-adv-x="881" 
d="M365 777q-36 0 -61.5 -13.5t-44.5 -41.5l-5 88q36 68 116 68q21 0 37 -4.5t40 -15.5q25 -11 40.5 -16t35.5 -5q36 0 61.5 13.5t44.5 41.5l5 -88q-36 -68 -116 -68q-21 0 -37 4.5t-40 15.5q-25 11 -40.5 16t-35.5 5zM388 100l-9 -100h-384l129 700h633l129 -700h-390
l-9 100h-99zM454 476h-33l-16 -187h66z" />
    <glyph glyph-name="Adieresis" unicode="&#xc4;" horiz-adv-x="881" 
d="M322 890q54 0 77.5 -17.5t23.5 -58.5q0 -42 -23.5 -59.5t-77.5 -17.5t-77.5 17.5t-23.5 59.5q0 41 23.5 58.5t77.5 17.5zM560 890q54 0 77.5 -17.5t23.5 -58.5q0 -42 -23.5 -59.5t-77.5 -17.5t-77.5 17.5t-23.5 59.5q0 41 23.5 58.5t77.5 17.5zM388 100l-9 -100h-384
l129 700h633l129 -700h-390l-9 100h-99zM454 476h-33l-16 -187h66z" />
    <glyph glyph-name="Aring" unicode="&#xc5;" horiz-adv-x="881" 
d="M441 918q81 0 116.5 -22t35.5 -73t-35.5 -73t-116.5 -22t-116.5 22t-35.5 73t35.5 73t116.5 22zM441 848q-34 0 -46.5 -5.5t-12.5 -19.5t12.5 -19.5t46.5 -5.5t46.5 5.5t12.5 19.5t-12.5 19.5t-46.5 5.5zM388 100l-9 -100h-384l129 700h633l129 -700h-390l-9 100h-99z
M454 476h-33l-16 -187h66z" />
    <glyph glyph-name="AE" unicode="&#xc6;" horiz-adv-x="1141" 
d="M1117 477h-284v-53h264v-148h-264v-53h284v-223h-658v100h-71l-9 -100h-384l129 700h993v-223zM421 476l-16 -187h54v187h-38z" />
    <glyph glyph-name="Ccedilla" unicode="&#xc7;" horiz-adv-x="707" 
d="M685 9q-52 -13 -95 -19.5t-87 -8.5q18 -20 18 -53q0 -92 -136 -92q-28 0 -54.5 3.5t-45.5 10.5l4 98q32 -8 61 -8q28 0 40 8t12 27v6q-103 4 -177 27.5t-121 68.5t-69.5 112.5t-22.5 160.5q0 98 25 168t78.5 115t136.5 66t200 21q30 0 57.5 -1.5t55.5 -5t57.5 -9
t62.5 -13.5l-12 -313q-35 9 -81 14.5t-90 5.5q-54 0 -77 -10.5t-23 -37.5t23 -37.5t77 -10.5q45 0 90.5 5.5t80.5 14.5z" />
    <glyph glyph-name="Egrave" unicode="&#xc8;" horiz-adv-x="719" 
d="M541 797v-67l-368 30v136zM695 477h-284v-53h264v-148h-264v-53h284v-223h-658v700h658v-223z" />
    <glyph glyph-name="Eacute" unicode="&#xc9;" horiz-adv-x="719" 
d="M563 760l-368 -30v67l368 99v-136zM695 477h-284v-53h264v-148h-264v-53h284v-223h-658v700h658v-223z" />
    <glyph glyph-name="Ecircumflex" unicode="&#xca;" horiz-adv-x="719" 
d="M368 780l-224 -50v67l204 99h40l204 -99v-67zM695 477h-284v-53h264v-148h-264v-53h284v-223h-658v700h658v-223z" />
    <glyph glyph-name="Edieresis" unicode="&#xcb;" horiz-adv-x="719" 
d="M249 890q54 0 77.5 -17.5t23.5 -58.5q0 -42 -23.5 -59.5t-77.5 -17.5t-77.5 17.5t-23.5 59.5q0 41 23.5 58.5t77.5 17.5zM487 890q54 0 77.5 -17.5t23.5 -58.5q0 -42 -23.5 -59.5t-77.5 -17.5t-77.5 17.5t-23.5 59.5q0 41 23.5 58.5t77.5 17.5zM695 477h-284v-53h264
v-148h-264v-53h284v-223h-658v700h658v-223z" />
    <glyph glyph-name="Igrave" unicode="&#xcc;" horiz-adv-x="448" 
d="M397 797v-67l-368 30v136zM411 0h-374v700h374v-700z" />
    <glyph glyph-name="Iacute" unicode="&#xcd;" horiz-adv-x="448" 
d="M419 760l-368 -30v67l368 99v-136zM411 0h-374v700h374v-700z" />
    <glyph glyph-name="Icircumflex" unicode="&#xce;" horiz-adv-x="448" 
d="M224 780l-224 -50v67l204 99h40l204 -99v-67zM411 0h-374v700h374v-700z" />
    <glyph glyph-name="Idieresis" unicode="&#xcf;" horiz-adv-x="448" 
d="M105 890q54 0 77.5 -17.5t23.5 -58.5q0 -42 -23.5 -59.5t-77.5 -17.5t-77.5 17.5t-23.5 59.5q0 41 23.5 58.5t77.5 17.5zM343 890q54 0 77.5 -17.5t23.5 -58.5q0 -42 -23.5 -59.5t-77.5 -17.5t-77.5 17.5t-23.5 59.5q0 41 23.5 58.5t77.5 17.5zM411 0h-374v700h374v-700z
" />
    <glyph glyph-name="Eth" unicode="&#xd0;" horiz-adv-x="897" 
d="M439 700q124 0 209.5 -18t138 -59.5t75.5 -108.5t23 -164q0 -98 -23 -164.5t-75.5 -108t-138 -59.5t-209.5 -18h-402v275h-42v150h42v275h402zM427 221q20 0 33.5 5.5t21 20t10.5 39.5t3 64t-3 64t-10.5 39.5t-21 20t-33.5 5.5h-16v-59h43v-140h-43v-59h16z" />
    <glyph glyph-name="Ntilde" unicode="&#xd1;" horiz-adv-x="994" 
d="M421 777q-36 0 -61.5 -13.5t-44.5 -41.5l-5 88q36 68 116 68q21 0 37 -4.5t40 -15.5q25 -11 40.5 -16t35.5 -5q36 0 61.5 13.5t44.5 41.5l5 -88q-36 -68 -116 -68q-21 0 -37 4.5t-40 15.5q-25 11 -40.5 16t-35.5 5zM457 0l-56 357h-29v-357h-335v700h506l56 -357h23v357
h335v-700h-500z" />
    <glyph glyph-name="Ograve" unicode="&#xd2;" horiz-adv-x="892" 
d="M619 797v-67l-368 30v136zM446 720q224 0 329 -89.5t105 -280.5t-105 -280.5t-329 -89.5t-329 89.5t-105 280.5t105 280.5t329 89.5zM446 459q-25 0 -34.5 -23.5t-9.5 -85.5t9.5 -85.5t34.5 -23.5t34.5 23.5t9.5 85.5t-9.5 85.5t-34.5 23.5z" />
    <glyph glyph-name="Oacute" unicode="&#xd3;" horiz-adv-x="892" 
d="M641 760l-368 -30v67l368 99v-136zM446 720q224 0 329 -89.5t105 -280.5t-105 -280.5t-329 -89.5t-329 89.5t-105 280.5t105 280.5t329 89.5zM446 459q-25 0 -34.5 -23.5t-9.5 -85.5t9.5 -85.5t34.5 -23.5t34.5 23.5t9.5 85.5t-9.5 85.5t-34.5 23.5z" />
    <glyph glyph-name="Ocircumflex" unicode="&#xd4;" horiz-adv-x="892" 
d="M446 780l-224 -50v67l204 99h40l204 -99v-67zM446 720q224 0 329 -89.5t105 -280.5t-105 -280.5t-329 -89.5t-329 89.5t-105 280.5t105 280.5t329 89.5zM446 459q-25 0 -34.5 -23.5t-9.5 -85.5t9.5 -85.5t34.5 -23.5t34.5 23.5t9.5 85.5t-9.5 85.5t-34.5 23.5z" />
    <glyph glyph-name="Otilde" unicode="&#xd5;" horiz-adv-x="892" 
d="M370 777q-36 0 -61.5 -13.5t-44.5 -41.5l-5 88q36 68 116 68q21 0 37 -4.5t40 -15.5q25 -11 40.5 -16t35.5 -5q36 0 61.5 13.5t44.5 41.5l5 -88q-36 -68 -116 -68q-21 0 -37 4.5t-40 15.5q-25 11 -40.5 16t-35.5 5zM446 720q224 0 329 -89.5t105 -280.5t-105 -280.5
t-329 -89.5t-329 89.5t-105 280.5t105 280.5t329 89.5zM446 459q-25 0 -34.5 -23.5t-9.5 -85.5t9.5 -85.5t34.5 -23.5t34.5 23.5t9.5 85.5t-9.5 85.5t-34.5 23.5z" />
    <glyph glyph-name="Odieresis" unicode="&#xd6;" horiz-adv-x="892" 
d="M327 890q54 0 77.5 -17.5t23.5 -58.5q0 -42 -23.5 -59.5t-77.5 -17.5t-77.5 17.5t-23.5 59.5q0 41 23.5 58.5t77.5 17.5zM565 890q54 0 77.5 -17.5t23.5 -58.5q0 -42 -23.5 -59.5t-77.5 -17.5t-77.5 17.5t-23.5 59.5q0 41 23.5 58.5t77.5 17.5zM446 720q224 0 329 -89.5
t105 -280.5t-105 -280.5t-329 -89.5t-329 89.5t-105 280.5t105 280.5t329 89.5zM446 459q-25 0 -34.5 -23.5t-9.5 -85.5t9.5 -85.5t34.5 -23.5t34.5 23.5t9.5 85.5t-9.5 85.5t-34.5 23.5z" />
    <glyph glyph-name="multiply" unicode="&#xd7;" 
d="M630 168l-133 -133l-172 172l-172 -172l-133 133l172 172l-172 172l133 133l172 -172l172 172l133 -133l-172 -172z" />
    <glyph glyph-name="Oslash" unicode="&#xd8;" horiz-adv-x="892" 
d="M849 530q31 -74 31 -180q0 -191 -105 -280.5t-329 -89.5q-163 0 -262 46l-62 -46l-122 158l43 32q-31 74 -31 180q0 191 105 280.5t329 89.5q163 0 262 -46l62 46l122 -158zM446 241q25 0 34.5 23.5t9.5 85.5t-9.5 85.5t-34.5 23.5t-34.5 -23.5t-9.5 -85.5t9.5 -85.5
t34.5 -23.5z" />
    <glyph glyph-name="Ugrave" unicode="&#xd9;" horiz-adv-x="868" 
d="M612 797v-67l-368 30v136zM840 300q0 -90 -20.5 -151.5t-68 -99t-124.5 -53.5t-190 -16q-114 0 -192.5 16.5t-126.5 54t-69 99t-21 150.5v400h373v-384q0 -43 8 -59t30 -16t30 16t8 59v384h363v-400z" />
    <glyph glyph-name="Uacute" unicode="&#xda;" horiz-adv-x="868" 
d="M634 760l-368 -30v67l368 99v-136zM840 300q0 -90 -20.5 -151.5t-68 -99t-124.5 -53.5t-190 -16q-114 0 -192.5 16.5t-126.5 54t-69 99t-21 150.5v400h373v-384q0 -43 8 -59t30 -16t30 16t8 59v384h363v-400z" />
    <glyph glyph-name="Ucircumflex" unicode="&#xdb;" horiz-adv-x="868" 
d="M439 780l-224 -50v67l204 99h40l204 -99v-67zM840 300q0 -90 -20.5 -151.5t-68 -99t-124.5 -53.5t-190 -16q-114 0 -192.5 16.5t-126.5 54t-69 99t-21 150.5v400h373v-384q0 -43 8 -59t30 -16t30 16t8 59v384h363v-400z" />
    <glyph glyph-name="Udieresis" unicode="&#xdc;" horiz-adv-x="868" 
d="M320 890q54 0 77.5 -17.5t23.5 -58.5q0 -42 -23.5 -59.5t-77.5 -17.5t-77.5 17.5t-23.5 59.5q0 41 23.5 58.5t77.5 17.5zM558 890q54 0 77.5 -17.5t23.5 -58.5q0 -42 -23.5 -59.5t-77.5 -17.5t-77.5 17.5t-23.5 59.5q0 41 23.5 58.5t77.5 17.5zM840 300
q0 -90 -20.5 -151.5t-68 -99t-124.5 -53.5t-190 -16q-114 0 -192.5 16.5t-126.5 54t-69 99t-21 150.5v400h373v-384q0 -43 8 -59t30 -16t30 16t8 59v384h363v-400z" />
    <glyph glyph-name="Yacute" unicode="&#xdd;" horiz-adv-x="795" 
d="M595 760l-368 -30v67l368 99v-136zM586 0h-378v194l-258 506h417l20 -229h28l20 229h410l-259 -508v-192z" />
    <glyph glyph-name="Thorn" unicode="&#xde;" horiz-adv-x="876" 
d="M410 645h28q127 0 211 -13.5t134 -46t70.5 -87t20.5 -137.5t-20.5 -137.5t-70.5 -87t-134 -46t-211 -13.5h-28v-77h-373v700h373v-55zM410 457v-192h16q39 0 53.5 20.5t14.5 75.5t-14.5 75.5t-53.5 20.5h-16z" />
    <glyph glyph-name="germandbls" unicode="&#xdf;" horiz-adv-x="801" 
d="M408 720q99 0 169 -11.5t113.5 -36t63.5 -64t20 -96.5q0 -62 -23 -100t-74 -58v-2q66 -18 94 -57.5t28 -111.5q0 -106 -57 -154.5t-181 -48.5q-38 0 -76 4.5t-84 15.5v223q12 -3 22 -3q35 0 35 39q0 23 -13.5 33.5t-43.5 10.5v97q30 0 43.5 10t13.5 33q0 39 -44 39
q-50 0 -50 -50l1 -432h-335v431q0 83 18.5 138.5t62 89t116.5 47.5t181 14z" />
    <glyph glyph-name="agrave" unicode="&#xe0;" horiz-adv-x="738" 
d="M530 717v-67l-368 30v136zM314 640q112 0 188.5 -16t123.5 -52.5t67.5 -96t20.5 -146.5v-192q0 -45 2.5 -75.5t7.5 -61.5h-315l-13 56h-2q-61 -76 -193 -76q-192 0 -192 174q0 178 205 178q48 0 91 -8.5t72 -23.5h2v2q0 38 -35 56t-110 18q-60 0 -113 -10.5t-85 -29.5
l-10 279q65 12 139 18.5t149 6.5zM350 221q-21 0 -29.5 -11t-8.5 -40t8.5 -40t29.5 -11q18 0 29 8v86q-11 8 -29 8z" />
    <glyph glyph-name="aacute" unicode="&#xe1;" horiz-adv-x="738" 
d="M552 680l-368 -30v67l368 99v-136zM314 640q112 0 188.5 -16t123.5 -52.5t67.5 -96t20.5 -146.5v-192q0 -45 2.5 -75.5t7.5 -61.5h-315l-13 56h-2q-61 -76 -193 -76q-192 0 -192 174q0 178 205 178q48 0 91 -8.5t72 -23.5h2v2q0 38 -35 56t-110 18q-60 0 -113 -10.5
t-85 -29.5l-10 279q65 12 139 18.5t149 6.5zM350 221q-21 0 -29.5 -11t-8.5 -40t8.5 -40t29.5 -11q18 0 29 8v86q-11 8 -29 8z" />
    <glyph glyph-name="acircumflex" unicode="&#xe2;" horiz-adv-x="738" 
d="M357 700l-224 -50v67l204 99h40l204 -99v-67zM314 640q112 0 188.5 -16t123.5 -52.5t67.5 -96t20.5 -146.5v-192q0 -45 2.5 -75.5t7.5 -61.5h-315l-13 56h-2q-61 -76 -193 -76q-192 0 -192 174q0 178 205 178q48 0 91 -8.5t72 -23.5h2v2q0 38 -35 56t-110 18
q-60 0 -113 -10.5t-85 -29.5l-10 279q65 12 139 18.5t149 6.5zM350 221q-21 0 -29.5 -11t-8.5 -40t8.5 -40t29.5 -11q18 0 29 8v86q-11 8 -29 8z" />
    <glyph glyph-name="atilde" unicode="&#xe3;" horiz-adv-x="738" 
d="M281 697q-36 0 -61.5 -13.5t-44.5 -41.5l-5 88q36 68 116 68q21 0 37 -4.5t40 -15.5q25 -11 40.5 -16t35.5 -5q36 0 61.5 13.5t44.5 41.5l5 -88q-36 -68 -116 -68q-21 0 -37 4.5t-40 15.5q-25 11 -40.5 16t-35.5 5zM314 640q112 0 188.5 -16t123.5 -52.5t67.5 -96
t20.5 -146.5v-192q0 -45 2.5 -75.5t7.5 -61.5h-315l-13 56h-2q-61 -76 -193 -76q-192 0 -192 174q0 178 205 178q48 0 91 -8.5t72 -23.5h2v2q0 38 -35 56t-110 18q-60 0 -113 -10.5t-85 -29.5l-10 279q65 12 139 18.5t149 6.5zM350 221q-21 0 -29.5 -11t-8.5 -40t8.5 -40
t29.5 -11q18 0 29 8v86q-11 8 -29 8z" />
    <glyph glyph-name="adieresis" unicode="&#xe4;" horiz-adv-x="738" 
d="M238 810q54 0 77.5 -17.5t23.5 -58.5q0 -42 -23.5 -59.5t-77.5 -17.5t-77.5 17.5t-23.5 59.5q0 41 23.5 58.5t77.5 17.5zM476 810q54 0 77.5 -17.5t23.5 -58.5q0 -42 -23.5 -59.5t-77.5 -17.5t-77.5 17.5t-23.5 59.5q0 41 23.5 58.5t77.5 17.5zM314 640q112 0 188.5 -16
t123.5 -52.5t67.5 -96t20.5 -146.5v-192q0 -45 2.5 -75.5t7.5 -61.5h-315l-13 56h-2q-61 -76 -193 -76q-192 0 -192 174q0 178 205 178q48 0 91 -8.5t72 -23.5h2v2q0 38 -35 56t-110 18q-60 0 -113 -10.5t-85 -29.5l-10 279q65 12 139 18.5t149 6.5zM350 221
q-21 0 -29.5 -11t-8.5 -40t8.5 -40t29.5 -11q18 0 29 8v86q-11 8 -29 8z" />
    <glyph glyph-name="aring" unicode="&#xe5;" horiz-adv-x="738" 
d="M357 838q81 0 116.5 -22t35.5 -73t-35.5 -73t-116.5 -22t-116.5 22t-35.5 73t35.5 73t116.5 22zM357 768q-34 0 -46.5 -5.5t-12.5 -19.5t12.5 -19.5t46.5 -5.5t46.5 5.5t12.5 19.5t-12.5 19.5t-46.5 5.5zM314 640q112 0 188.5 -16t123.5 -52.5t67.5 -96t20.5 -146.5v-192
q0 -45 2.5 -75.5t7.5 -61.5h-315l-13 56h-2q-61 -76 -193 -76q-192 0 -192 174q0 178 205 178q48 0 91 -8.5t72 -23.5h2v2q0 38 -35 56t-110 18q-60 0 -113 -10.5t-85 -29.5l-10 279q65 12 139 18.5t149 6.5zM350 221q-21 0 -29.5 -11t-8.5 -40t8.5 -40t29.5 -11q18 0 29 8
v86q-11 8 -29 8z" />
    <glyph glyph-name="ae" unicode="&#xe6;" horiz-adv-x="1084" 
d="M776 640q146 0 223 -62t77 -182q0 -12 -0.5 -25.5t-2 -26t-3 -23.5t-3.5 -17h-347q4 -29 33.5 -40t98.5 -11q52 0 95 5.5t94 18.5l10 -272q-33 -8 -59 -12.5t-48.5 -7.5t-44.5 -4t-47 -1q-60 0 -106.5 5t-83.5 16.5t-65.5 29t-50.5 42.5q-68 -50 -137.5 -71.5
t-156.5 -21.5q-126 0 -184.5 43t-58.5 135q0 174 206 174q48 0 90.5 -8.5t71.5 -23.5h2v2q0 38 -35 56t-110 18q-60 0 -113 -10.5t-85 -29.5l-10 279q63 12 131 18.5t130 6.5q49 0 89 -4.5t71.5 -14t56.5 -24.5t45 -36q38 41 93 60t134 19zM759 464q-24 0 -32.5 -17
t-9.5 -65h84q-1 48 -9.5 65t-32.5 17zM350 221q-21 0 -29.5 -11t-8.5 -41q0 -50 29 -50q38 0 38 56v38q-11 8 -29 8z" />
    <glyph glyph-name="ccedilla" unicode="&#xe7;" horiz-adv-x="631" 
d="M610 5q-43 -10 -79.5 -16t-74.5 -8q19 -19 19 -53q0 -92 -136 -92q-28 0 -54.5 3.5t-45.5 10.5l4 98q32 -8 61 -8q28 0 40 8t12 27v6q-91 4 -156.5 25t-107.5 61t-61.5 100t-19.5 143q0 87 22.5 149.5t69.5 102.5t121 59t177 19q56 0 103.5 -5.5t105.5 -19.5l-10 -285
q-26 9 -67 14t-86 5q-50 0 -68.5 -8.5t-18.5 -30.5q0 -23 18.5 -31t68.5 -8q45 0 86 5t67 14z" />
    <glyph glyph-name="egrave" unicode="&#xe8;" horiz-adv-x="726" 
d="M558 717v-67l-368 30v136zM385 640q172 0 252.5 -59t80.5 -185q0 -24 -2.5 -52t-6.5 -40h-347q4 -29 33.5 -40t98.5 -11q52 0 95 5.5t94 18.5l10 -272q-56 -12 -118 -18.5t-132 -6.5q-115 0 -196.5 19t-134 59.5t-77 103.5t-24.5 152q0 169 90 247.5t284 78.5zM401 464
q-24 0 -32.5 -17t-9.5 -65h84q-1 48 -9.5 65t-32.5 17z" />
    <glyph glyph-name="eacute" unicode="&#xe9;" horiz-adv-x="726" 
d="M580 680l-368 -30v67l368 99v-136zM385 640q172 0 252.5 -59t80.5 -185q0 -24 -2.5 -52t-6.5 -40h-347q4 -29 33.5 -40t98.5 -11q52 0 95 5.5t94 18.5l10 -272q-56 -12 -118 -18.5t-132 -6.5q-115 0 -196.5 19t-134 59.5t-77 103.5t-24.5 152q0 169 90 247.5t284 78.5z
M401 464q-24 0 -32.5 -17t-9.5 -65h84q-1 48 -9.5 65t-32.5 17z" />
    <glyph glyph-name="ecircumflex" unicode="&#xea;" horiz-adv-x="726" 
d="M385 700l-224 -50v67l204 99h40l204 -99v-67zM385 640q172 0 252.5 -59t80.5 -185q0 -24 -2.5 -52t-6.5 -40h-347q4 -29 33.5 -40t98.5 -11q52 0 95 5.5t94 18.5l10 -272q-56 -12 -118 -18.5t-132 -6.5q-115 0 -196.5 19t-134 59.5t-77 103.5t-24.5 152q0 169 90 247.5
t284 78.5zM401 464q-24 0 -32.5 -17t-9.5 -65h84q-1 48 -9.5 65t-32.5 17z" />
    <glyph glyph-name="edieresis" unicode="&#xeb;" horiz-adv-x="726" 
d="M266 810q54 0 77.5 -17.5t23.5 -58.5q0 -42 -23.5 -59.5t-77.5 -17.5t-77.5 17.5t-23.5 59.5q0 41 23.5 58.5t77.5 17.5zM504 810q54 0 77.5 -17.5t23.5 -58.5q0 -42 -23.5 -59.5t-77.5 -17.5t-77.5 17.5t-23.5 59.5q0 41 23.5 58.5t77.5 17.5zM385 640q172 0 252.5 -59
t80.5 -185q0 -24 -2.5 -52t-6.5 -40h-347q4 -29 33.5 -40t98.5 -11q52 0 95 5.5t94 18.5l10 -272q-56 -12 -118 -18.5t-132 -6.5q-115 0 -196.5 19t-134 59.5t-77 103.5t-24.5 152q0 169 90 247.5t284 78.5zM401 464q-24 0 -32.5 -17t-9.5 -65h84q-1 48 -9.5 65t-32.5 17z
" />
    <glyph glyph-name="igrave" unicode="&#xec;" horiz-adv-x="400" 
d="M373 717v-67l-368 30v136zM367 0h-334v620h334v-620z" />
    <glyph glyph-name="iacute" unicode="&#xed;" horiz-adv-x="400" 
d="M395 680l-368 -30v67l368 99v-136zM367 0h-334v620h334v-620z" />
    <glyph glyph-name="icircumflex" unicode="&#xee;" horiz-adv-x="400" 
d="M200 700l-224 -50v67l204 99h40l204 -99v-67zM367 0h-334v620h334v-620z" />
    <glyph glyph-name="idieresis" unicode="&#xef;" horiz-adv-x="400" 
d="M81 810q54 0 77.5 -17.5t23.5 -58.5q0 -42 -23.5 -59.5t-77.5 -17.5t-77.5 17.5t-23.5 59.5q0 41 23.5 58.5t77.5 17.5zM319 810q54 0 77.5 -17.5t23.5 -58.5q0 -42 -23.5 -59.5t-77.5 -17.5t-77.5 17.5t-23.5 59.5q0 41 23.5 58.5t77.5 17.5zM367 0h-334v620h334v-620z
" />
    <glyph glyph-name="eth" unicode="&#xf0;" horiz-adv-x="772" 
d="M600 687l-50 -23q108 -47 159.5 -130.5t51.5 -210.5q0 -176 -97.5 -259.5t-301.5 -83.5q-182 0 -269.5 65t-87.5 200q0 118 64 182t185 64q45 0 84 -9.5t66 -26.5h2q-14 35 -43 54.5t-83 29.5l-105 -49l-20 34l51 23v2q-36 3 -83 3l68 168q187 0 307 -37l82 38zM372 323
q-21 0 -29.5 -15t-8.5 -53t8.5 -53t28.5 -15q22 0 31.5 15.5t9.5 50.5v49q-15 21 -40 21z" />
    <glyph glyph-name="ntilde" unicode="&#xf1;" horiz-adv-x="796" 
d="M324 697q-36 0 -61.5 -13.5t-44.5 -41.5l-5 88q36 68 116 68q21 0 37 -4.5t40 -15.5q25 -11 40.5 -16t35.5 -5q36 0 61.5 13.5t44.5 41.5l5 -88q-36 -68 -116 -68q-21 0 -37 4.5t-40 15.5q-25 11 -40.5 16t-35.5 5zM566 640q55 0 93 -13.5t62 -43.5t35 -77.5t11 -115.5
v-390h-334v339q0 30 -7.5 42t-27.5 12q-18 0 -31 -9v-384h-334v620h319l7 -82h2q33 54 82 78t123 24z" />
    <glyph glyph-name="ograve" unicode="&#xf2;" horiz-adv-x="798" 
d="M572 717v-67l-368 30v136zM399 640q200 0 294 -79.5t94 -250.5t-94 -250.5t-294 -79.5t-294 79.5t-94 250.5t94 250.5t294 79.5zM399 393q-23 0 -31 -17t-8 -66t8 -66t31 -17t31 17t8 66t-8 66t-31 17z" />
    <glyph glyph-name="oacute" unicode="&#xf3;" horiz-adv-x="798" 
d="M594 680l-368 -30v67l368 99v-136zM399 640q200 0 294 -79.5t94 -250.5t-94 -250.5t-294 -79.5t-294 79.5t-94 250.5t94 250.5t294 79.5zM399 393q-23 0 -31 -17t-8 -66t8 -66t31 -17t31 17t8 66t-8 66t-31 17z" />
    <glyph glyph-name="ocircumflex" unicode="&#xf4;" horiz-adv-x="798" 
d="M399 700l-224 -50v67l204 99h40l204 -99v-67zM399 640q200 0 294 -79.5t94 -250.5t-94 -250.5t-294 -79.5t-294 79.5t-94 250.5t94 250.5t294 79.5zM399 393q-23 0 -31 -17t-8 -66t8 -66t31 -17t31 17t8 66t-8 66t-31 17z" />
    <glyph glyph-name="otilde" unicode="&#xf5;" horiz-adv-x="798" 
d="M323 697q-36 0 -61.5 -13.5t-44.5 -41.5l-5 88q36 68 116 68q21 0 37 -4.5t40 -15.5q25 -11 40.5 -16t35.5 -5q36 0 61.5 13.5t44.5 41.5l5 -88q-36 -68 -116 -68q-21 0 -37 4.5t-40 15.5q-25 11 -40.5 16t-35.5 5zM399 640q200 0 294 -79.5t94 -250.5t-94 -250.5
t-294 -79.5t-294 79.5t-94 250.5t94 250.5t294 79.5zM399 393q-23 0 -31 -17t-8 -66t8 -66t31 -17t31 17t8 66t-8 66t-31 17z" />
    <glyph glyph-name="odieresis" unicode="&#xf6;" horiz-adv-x="798" 
d="M280 810q54 0 77.5 -17.5t23.5 -58.5q0 -42 -23.5 -59.5t-77.5 -17.5t-77.5 17.5t-23.5 59.5q0 41 23.5 58.5t77.5 17.5zM518 810q54 0 77.5 -17.5t23.5 -58.5q0 -42 -23.5 -59.5t-77.5 -17.5t-77.5 17.5t-23.5 59.5q0 41 23.5 58.5t77.5 17.5zM399 640q200 0 294 -79.5
t94 -250.5t-94 -250.5t-294 -79.5t-294 79.5t-94 250.5t94 250.5t294 79.5zM399 393q-23 0 -31 -17t-8 -66t8 -66t31 -17t31 17t8 66t-8 66t-31 17z" />
    <glyph glyph-name="divide" unicode="&#xf7;" 
d="M326 700q61 0 94.5 -30.5t33.5 -87.5t-33.5 -87.5t-94.5 -30.5q-62 0 -95.5 30.5t-33.5 87.5t33.5 87.5t95.5 30.5zM629 240h-608v200h608v-200zM326 216q61 0 94.5 -30.5t33.5 -87.5t-33.5 -87.5t-94.5 -30.5q-62 0 -95.5 30.5t-33.5 87.5t33.5 87.5t95.5 30.5z" />
    <glyph glyph-name="oslash" unicode="&#xf8;" horiz-adv-x="798" 
d="M763 460q24 -63 24 -150q0 -171 -94 -250.5t-294 -79.5q-148 0 -234 41l-57 -41l-108 154l35 26q-24 63 -24 150q0 171 94 250.5t294 79.5q146 0 234 -41l57 41l108 -154zM399 227q23 0 31 17t8 66t-8 66t-31 17t-31 -17t-8 -66t8 -66t31 -17z" />
    <glyph glyph-name="ugrave" unicode="&#xf9;" horiz-adv-x="796" 
d="M569 717v-67l-368 30v136zM763 0h-319l-7 82h-2q-35 -56 -84.5 -79t-119.5 -23q-55 0 -93.5 13.5t-62.5 43.5t-35 77.5t-11 115.5v390h334v-339q0 -30 7.5 -42t27.5 -12q17 0 31 9v384h334v-620z" />
    <glyph glyph-name="uacute" unicode="&#xfa;" horiz-adv-x="796" 
d="M591 680l-368 -30v67l368 99v-136zM763 0h-319l-7 82h-2q-35 -56 -84.5 -79t-119.5 -23q-55 0 -93.5 13.5t-62.5 43.5t-35 77.5t-11 115.5v390h334v-339q0 -30 7.5 -42t27.5 -12q17 0 31 9v384h334v-620z" />
    <glyph glyph-name="ucircumflex" unicode="&#xfb;" horiz-adv-x="796" 
d="M396 700l-224 -50v67l204 99h40l204 -99v-67zM763 0h-319l-7 82h-2q-35 -56 -84.5 -79t-119.5 -23q-55 0 -93.5 13.5t-62.5 43.5t-35 77.5t-11 115.5v390h334v-339q0 -30 7.5 -42t27.5 -12q17 0 31 9v384h334v-620z" />
    <glyph glyph-name="udieresis" unicode="&#xfc;" horiz-adv-x="796" 
d="M277 810q54 0 77.5 -17.5t23.5 -58.5q0 -42 -23.5 -59.5t-77.5 -17.5t-77.5 17.5t-23.5 59.5q0 41 23.5 58.5t77.5 17.5zM515 810q54 0 77.5 -17.5t23.5 -58.5q0 -42 -23.5 -59.5t-77.5 -17.5t-77.5 17.5t-23.5 59.5q0 41 23.5 58.5t77.5 17.5zM763 0h-319l-7 82h-2
q-35 -56 -84.5 -79t-119.5 -23q-55 0 -93.5 13.5t-62.5 43.5t-35 77.5t-11 115.5v390h334v-339q0 -30 7.5 -42t27.5 -12q17 0 31 9v384h334v-620z" />
    <glyph glyph-name="yacute" unicode="&#xfd;" horiz-adv-x="753" 
d="M575 680l-368 -30v67l368 99v-136zM674 158q-13 -64 -40 -111t-71.5 -77.5t-107.5 -45t-148 -14.5q-29 0 -62 1.5t-66.5 5.5t-65 9.5t-58.5 13.5l-10 260q45 -19 92 -27.5t98 -8.5q59 0 88 11.5t43 37.5h-2q-27 -5 -52.5 -7t-53.5 -2q-56 0 -93 7t-61 25.5t-38.5 51
t-24.5 83.5l-48 249h350l21 -280q1 -16 15 -16q6 0 14 3l24 293h345z" />
    <glyph glyph-name="thorn" unicode="&#xfe;" horiz-adv-x="799" 
d="M788 317q0 -337 -262 -337q-98 0 -157 46h-2v-96h-334v770h334v-146h2q64 86 182 86t177.5 -81t59.5 -242zM397 393q-18 0 -30 -9v-148q12 -9 30 -9q23 0 32.5 18.5t9.5 64.5t-9.5 64.5t-32.5 18.5z" />
    <glyph glyph-name="ydieresis" unicode="&#xff;" horiz-adv-x="753" 
d="M261 810q54 0 77.5 -17.5t23.5 -58.5q0 -42 -23.5 -59.5t-77.5 -17.5t-77.5 17.5t-23.5 59.5q0 41 23.5 58.5t77.5 17.5zM499 810q54 0 77.5 -17.5t23.5 -58.5q0 -42 -23.5 -59.5t-77.5 -17.5t-77.5 17.5t-23.5 59.5q0 41 23.5 58.5t77.5 17.5zM674 158q-13 -64 -40 -111
t-71.5 -77.5t-107.5 -45t-148 -14.5q-29 0 -62 1.5t-66.5 5.5t-65 9.5t-58.5 13.5l-10 260q45 -19 92 -27.5t98 -8.5q59 0 88 11.5t43 37.5h-2q-27 -5 -52.5 -7t-53.5 -2q-56 0 -93 7t-61 25.5t-38.5 51t-24.5 83.5l-48 249h350l21 -280q1 -16 15 -16q6 0 14 3l24 293h345z
" />
    <glyph glyph-name="dotlessi" unicode="&#x131;" horiz-adv-x="400" 
d="M33 0v620h334v-620h-334z" />
    <glyph glyph-name="OE" unicode="&#x152;" horiz-adv-x="1167" 
d="M1143 477h-283v-53h263v-148h-263v-53h283v-223h-685q-124 0 -209.5 18t-138 59.5t-75.5 108t-23 164.5q0 97 23 164t75.5 108.5t138 59.5t209.5 18h685v-223zM470 459q-20 0 -33 -5t-21 -17.5t-11 -33.5t-3 -53t3 -53t11 -33.5t21 -17.5t33 -5h15v218h-15z" />
    <glyph glyph-name="oe" unicode="&#x153;" horiz-adv-x="1153" 
d="M843 640q148 0 225 -61.5t77 -182.5q0 -12 -0.5 -25.5t-2 -26t-3 -23.5t-3.5 -17h-347q4 -29 34 -40t99 -11q52 0 94.5 5.5t93.5 18.5l10 -272q-34 -8 -60.5 -13t-49 -7.5t-43.5 -3.5t-43 -1q-59 0 -105.5 5.5t-83 16.5t-65.5 28.5t-53 41.5q-80 -92 -258 -92
q-173 0 -260.5 83t-87.5 247t87.5 247t261.5 83q168 0 248 -83q37 42 94 62.5t141 20.5zM828 464q-24 0 -32.5 -17t-9.5 -65h84q-1 48 -9.5 65t-32.5 17zM399 393q-23 0 -31 -17.5t-8 -65.5t8 -65.5t31 -17.5t31 17.5t8 65.5t-8 65.5t-31 17.5z" />
    <glyph glyph-name="Scaron" unicode="&#x160;" horiz-adv-x="730" 
d="M385 730h-40l-204 99v67l224 -50l224 50v-67zM403 720q78 0 152 -7t145 -22l-11 -258q-28 20 -78 32t-109 12q-48 0 -68.5 -8.5t-20.5 -31.5q160 0 235 -52t75 -170q0 -63 -21.5 -108t-68 -73t-120.5 -41t-179 -13q-78 0 -156 7t-165 22l12 269q32 -21 89.5 -33.5
t122.5 -12.5q51 0 72.5 9t21.5 32q-84 0 -144.5 12t-99.5 38t-57.5 66.5t-18.5 98.5q0 62 21.5 106t68.5 72t121.5 41t180.5 13z" />
    <glyph glyph-name="scaron" unicode="&#x161;" horiz-adv-x="658" 
d="M350 650h-40l-204 99v67l224 -50l224 50v-67zM364 640q64 0 129.5 -6t133.5 -19l-10 -235q-23 18 -66.5 29t-97.5 11q-48 0 -67 -7.5t-19 -24.5q282 0 282 -188q0 -62 -18.5 -104t-59.5 -67.5t-108.5 -37t-164.5 -11.5q-60 0 -130 6t-151 19l10 245q28 -20 78.5 -31.5
t108.5 -11.5q48 0 69 7t21 27q-291 0 -291 179q0 61 18.5 103.5t59.5 68t108 37t165 11.5z" />
    <glyph glyph-name="Ydieresis" unicode="&#x178;" horiz-adv-x="795" 
d="M281 890q54 0 77.5 -17.5t23.5 -58.5q0 -42 -23.5 -59.5t-77.5 -17.5t-77.5 17.5t-23.5 59.5q0 41 23.5 58.5t77.5 17.5zM519 890q54 0 77.5 -17.5t23.5 -58.5q0 -42 -23.5 -59.5t-77.5 -17.5t-77.5 17.5t-23.5 59.5q0 41 23.5 58.5t77.5 17.5zM586 0h-378v194l-258 506
h417l20 -229h28l20 229h410l-259 -508v-192z" />
    <glyph glyph-name="Zcaron" unicode="&#x17d;" horiz-adv-x="768" 
d="M404 730h-40l-204 99v67l224 -50l224 50v-67zM483 256h263v-256h-726v231l263 213h-253v256h716v-231z" />
    <glyph glyph-name="zcaron" unicode="&#x17e;" horiz-adv-x="684" 
d="M362 650h-40l-204 99v67l224 -50l224 50v-67zM445 242h215v-242h-638v210l215 168h-207v242h630v-210z" />
    <glyph glyph-name="florin" unicode="&#x192;" horiz-adv-x="618" 
d="M443 720q46 0 86 -4.5t91 -15.5l-41 -260q-14 5 -37 7.5t-43 2.5q-33 0 -46 -10.5t-17 -38.5h137l-39 -242h-132l-36 -229h-335l36 229h-51l39 242h51l9 60q11 71 34.5 120.5t62.5 80t96 44.5t135 14z" />
    <glyph glyph-name="uni0237" unicode="&#x237;" horiz-adv-x="420" 
d="M387 129q0 -61 -12 -102.5t-39 -67.5t-71 -37.5t-108 -11.5q-48 0 -87 5.5t-69 16.5v284q3 -2 11 -2.5t14 -0.5q14 0 20.5 4.5t6.5 18.5v384h334v-491z" />
    <glyph glyph-name="circumflex" unicode="&#x2c6;" horiz-adv-x="480" 
d="M240 700l-224 -50v67l204 99h40l204 -99v-67z" />
    <glyph glyph-name="tilde" unicode="&#x2dc;" horiz-adv-x="480" 
d="M162 697q-36 0 -61.5 -13.5t-44.5 -41.5l-5 88q36 68 116 68q21 0 37 -4.5t40 -15.5q25 -11 40.5 -16t35.5 -5q36 0 61.5 13.5t44.5 41.5l5 -88q-36 -68 -116 -68q-21 0 -37 4.5t-40 15.5q-25 11 -40.5 16t-35.5 5z" />
    <glyph glyph-name="endash" unicode="&#x2013;" horiz-adv-x="480" 
d="M440 229h-400v202h400v-202z" />
    <glyph glyph-name="emdash" unicode="&#x2014;" horiz-adv-x="800" 
d="M760 229h-720v202h720v-202z" />
    <glyph glyph-name="quoteleft" unicode="&#x2018;" horiz-adv-x="380" 
d="M188 333q-82 0 -126 44t-44 125q0 104 69.5 161t197.5 57l25 -95q-54 0 -86.5 -14.5t-41.5 -42.5h2q28 19 69 19q49 0 79 -31t30 -82q0 -32 -12.5 -57.5t-35 -44.5t-54.5 -29t-72 -10z" />
    <glyph glyph-name="quoteright" unicode="&#x2019;" horiz-adv-x="380" 
d="M192 720q82 0 126 -44t44 -125q0 -104 -69.5 -161t-197.5 -57l-25 95q54 0 86.5 14.5t41.5 42.5h-2q-29 -19 -69 -19q-49 0 -79 31t-30 82q0 31 12.5 57t35 45t54.5 29t72 10z" />
    <glyph glyph-name="quotesinglbase" unicode="&#x201a;" horiz-adv-x="380" 
d="M192 297q82 0 126 -44t44 -125q0 -104 -69.5 -161t-197.5 -57l-25 95q54 0 86.5 14.5t41.5 42.5h-2q-29 -19 -69 -19q-49 0 -79 31t-30 82q0 31 12.5 57t35 45t54.5 29t72 10z" />
    <glyph glyph-name="quotedblleft" unicode="&#x201c;" horiz-adv-x="671" 
d="M169 333q-74 0 -113.5 44t-39.5 125q0 104 63 161t178 57l22 -95q-98 0 -115 -57h2q25 19 62 19q44 0 71 -31t27 -82q0 -63 -42.5 -102t-114.5 -39zM498 333q-74 0 -113.5 44t-39.5 125q0 104 63 161t178 57l22 -95q-98 0 -115 -57h2q25 19 62 19q44 0 71 -31t27 -82
q0 -63 -42.5 -102t-114.5 -39z" />
    <glyph glyph-name="quotedblright" unicode="&#x201d;" horiz-adv-x="671" 
d="M173 720q74 0 113.5 -44t39.5 -125q0 -104 -63 -161t-178 -57l-22 95q98 0 115 57h-2q-25 -19 -62 -19q-44 0 -71 31t-27 82q0 63 42.5 102t114.5 39zM502 720q74 0 113.5 -44t39.5 -125q0 -104 -63 -161t-178 -57l-22 95q98 0 115 57h-2q-25 -19 -62 -19q-44 0 -71 31
t-27 82q0 63 42.5 102t114.5 39z" />
    <glyph glyph-name="quotedblbase" unicode="&#x201e;" horiz-adv-x="671" 
d="M173 297q74 0 113.5 -44t39.5 -125q0 -104 -63 -161t-178 -57l-22 95q98 0 115 57h-2q-25 -19 -62 -19q-44 0 -71 31t-27 82q0 63 42.5 102t114.5 39zM502 297q74 0 113.5 -44t39.5 -125q0 -104 -63 -161t-178 -57l-22 95q98 0 115 57h-2q-25 -19 -62 -19q-44 0 -71 31
t-27 82q0 63 42.5 102t114.5 39z" />
    <glyph glyph-name="dagger" unicode="&#x2020;" horiz-adv-x="638" 
d="M431 317l16 -387h-256l16 387l-198 -13v226l195 -13l-13 183h256l-13 -183l195 13v-226z" />
    <glyph glyph-name="daggerdbl" unicode="&#x2021;" horiz-adv-x="638" 
d="M427 288l202 13v-226l-194 13l12 -158h-256l12 158l-194 -13v226l202 -13v69l-202 -13v226l194 -12l-12 142h256l-12 -142l194 12v-226l-202 13v-69z" />
    <glyph glyph-name="bullet" unicode="&#x2022;" horiz-adv-x="480" 
d="M240 533q105 0 162.5 -53t57.5 -150t-57.5 -149.5t-162.5 -52.5t-162.5 52.5t-57.5 149.5t57.5 150t162.5 53z" />
    <glyph glyph-name="ellipsis" unicode="&#x2026;" horiz-adv-x="1092" 
d="M182 282q78 0 121 -39.5t43 -112.5q0 -72 -43 -111t-121 -39t-121 39t-43 111q0 73 43 112.5t121 39.5zM546 282q78 0 121 -39.5t43 -112.5q0 -72 -43 -111t-121 -39t-121 39t-43 111q0 73 43 112.5t121 39.5zM910 282q78 0 121 -39.5t43 -112.5q0 -72 -43 -111t-121 -39
t-121 39t-43 111q0 73 43 112.5t121 39.5z" />
    <glyph glyph-name="perthousand" unicode="&#x2030;" horiz-adv-x="1753" 
d="M273 720q137 0 197.5 -58t60.5 -189q0 -65 -14.5 -111.5t-46 -76.5t-80 -44t-117.5 -14t-118 14t-80.5 44t-46 76.5t-14.5 111.5q0 66 14.5 112.5t46 76.5t80.5 44t118 14zM463 0h-116l396 700h116zM273 562q-19 0 -25 -17.5t-6 -71.5q0 -53 6 -70.5t25 -17.5
q18 0 24 17.5t6 70.5q0 54 -6 71.5t-24 17.5zM932 473q137 0 197.5 -58t60.5 -189q0 -65 -14.5 -111.5t-46 -76.5t-80 -44t-117.5 -14t-118 14t-80.5 44t-46 76.5t-14.5 111.5q0 66 14.5 112.5t46 76.5t80.5 44t118 14zM1479 473q137 0 197.5 -58t60.5 -189
q0 -65 -14.5 -111.5t-46 -76.5t-80 -44t-117.5 -14t-118 14t-80.5 44t-46 76.5t-14.5 111.5q0 66 14.5 112.5t46 76.5t80.5 44t118 14zM932 315q-19 0 -25 -17.5t-6 -71.5q0 -53 6 -70.5t25 -17.5q18 0 24 17.5t6 70.5q0 54 -6 71.5t-24 17.5zM1479 315q-19 0 -25 -17.5
t-6 -71.5q0 -53 6 -70.5t25 -17.5q18 0 24 17.5t6 70.5q0 54 -6 71.5t-24 17.5z" />
    <glyph glyph-name="guilsinglleft" unicode="&#x2039;" horiz-adv-x="340" 
d="M102 105l-100 205l100 205h236l-91 -205l91 -205h-236z" />
    <glyph glyph-name="guilsinglright" unicode="&#x203a;" horiz-adv-x="340" 
d="M238 515l100 -205l-100 -205h-236l91 205l-91 205h236z" />
    <glyph glyph-name="Euro" unicode="&#x20ac;" horiz-adv-x="707" 
d="M464 720q120 0 223 -25l-10 -255q-31 11 -63 15t-74 4q-53 0 -81 -6.5t-42 -20.5v-2h234v-67h-254v-26h254v-67h-234v-2q14 -14 42 -20.5t81 -6.5q42 0 74 4t63 15l10 -255q-103 -25 -223 -25q-100 0 -173.5 16.5t-123.5 52t-78 90t-37 131.5h-47v67h43v26h-43v67h47
q9 76 37 131t78 90.5t123.5 52t173.5 16.5z" />
    <glyph glyph-name="trademark" unicode="&#x2122;" horiz-adv-x="1211" 
d="M420 540h-89v-278h-234v278h-88v160h411v-160zM1183 262h-213v234h-22l-35 -234h-199l-34 234h-22v-234h-210v438h331l17 -220h23l17 220h347v-438z" />
    </font>
</defs>
</svg>
